<?xml version="1.0" standalone="no"?>
<!DOCTYPE svg PUBLIC "-//W3C//DTD SVG 20010904//EN"
 "http://www.w3.org/TR/2001/REC-SVG-20010904/DTD/svg10.dtd">
<svg version="1.0" xmlns="http://www.w3.org/2000/svg"
 width="427.000000pt" height="427.000000pt" viewBox="0 0 427.000000 427.000000"
 preserveAspectRatio="xMidYMid meet">
<metadata>
Created by potrace 1.11, written by Peter Selinger 2001-2013
</metadata>
<g transform="translate(0.000000,427.000000) scale(0.100000,-0.100000)"
fill="#000000" stroke="none">
<path d="M6 3270 c-2 -3 64 -189 145 -415 82 -225 160 -441 173 -480 14 -38
116 -320 226 -625 111 -305 203 -559 204 -565 2 -5 6 -17 9 -25 3 -8 14 -40
25 -70 l20 -55 315 -3 314 -2 84 222 c46 123 84 225 85 228 0 3 5 16 11 30 10
24 33 86 93 250 15 42 39 105 53 140 51 135 101 268 130 350 16 47 33 90 37
95 4 6 10 23 14 39 9 36 17 27 44 -49 40 -116 443 -1230 452 -1250 4 -11 11
-28 14 -37 5 -17 29 -18 320 -18 l314 0 62 173 c57 158 110 304 280 772 34 94
71 197 82 230 11 33 26 74 33 90 7 17 36 95 65 175 55 154 80 225 110 305 28
76 180 496 180 498 0 6 -567 0 -576 -6 -7 -4 -15 -19 -18 -34 -4 -16 -20 -62
-35 -103 -29 -74 -114 -310 -117 -320 0 -3 -3 -12 -7 -20 -7 -17 -186 -517
-223 -620 -12 -36 -44 -123 -69 -195 -26 -71 -52 -143 -57 -160 -17 -49 -24
-48 -41 2 -16 50 -239 684 -283 808 -14 39 -45 126 -69 195 -108 311 -156 444
-161 449 -3 3 -128 6 -277 6 l-272 0 -27 -70 c-15 -38 -86 -234 -158 -435 -72
-201 -146 -405 -165 -455 -18 -49 -54 -148 -80 -220 -104 -289 -119 -325 -125
-318 -3 4 -11 24 -17 43 -7 19 -107 307 -223 640 -116 333 -213 612 -216 620
-2 8 -18 56 -36 105 l-33 90 -303 0 c-167 0 -305 -2 -306 -5z"/>
<path d="M3742 1784 c-146 -39 -261 -169 -278 -314 -3 -30 -7 -57 -7 -60 -1
-3 2 -34 7 -70 19 -158 129 -288 284 -333 65 -20 198 -16 262 7 98 35 199 138
235 239 21 59 29 182 14 245 -50 222 -281 350 -517 286z"/>
</g>
</svg>
